HIERARCHY
ROOT Hips
{
    OFFSET 0.000000 0.000000 0.000000
    CHANNELS 6 Xposition Yposition Zposition Zrotation Xrotation Yrotation
        JOINT Chest
        {
            OFFSET -0.000000 30.832245 -0.000000
            CHANNELS 3 Zrotation Xrotation Yrotation
            JOINT Neck
            {
                OFFSET -0.000000 22.747684 0.000000
                CHANNELS 3 Zrotation Xrotation Yrotation
                JOINT Head
                {
                    OFFSET -0.000000 10.755556 0.000000
                    CHANNELS 3 Zrotation Xrotation Yrotation
                    End Site
                    {
                        OFFSET -0.000000 16.622223 0.000000
                    }
                }
            }
            JOINT LeftCollar
            {
                OFFSET -0.000000 22.747684 0.000000
                CHANNELS 3 Zrotation Xrotation Yrotation
                JOINT LeftShoulder
                {
                    OFFSET 19.555553 -0.000000 0.000000
                    CHANNELS 3 Zrotation Xrotation Yrotation
                    JOINT LeftElbow
                    {
                        OFFSET 22.529686 0.000000 0.000000
                        CHANNELS 3 Zrotation Xrotation Yrotation
                        JOINT LeftWrist
                        {
                            OFFSET 26.249420 0.000000 0.000000
                            CHANNELS 3 Zrotation Xrotation Yrotation
                            End Site
                            {
                                OFFSET 0.000000 -14.666668 0.000000
                            }
                        }
                    }
                }
            }
            JOINT RightCollar
            {
                OFFSET -0.000000 22.747684 0.000000
                CHANNELS 3 Zrotation Xrotation Yrotation
                JOINT RightShoulder
                {
                    OFFSET -19.555553 0.000000 0.000000
                    CHANNELS 3 Zrotation Xrotation Yrotation
                    JOINT RightElbow
                    {
                        OFFSET -22.529686 0.000000 0.000000
                        CHANNELS 3 Zrotation Xrotation Yrotation
                        JOINT RightWrist
                        {
                            OFFSET -26.249420 0.000000 0.000000
                            CHANNELS 3 Zrotation Xrotation Yrotation
                            End Site
                            {
                                OFFSET -0.000000 -14.666668 0.000000
                            }
                        }
                    }
                }
            }
        }
    JOINT LeftHip
    {
        OFFSET 11.733333 0.000000 0.000000
        CHANNELS 3 Zrotation Xrotation Yrotation
        JOINT LeftKnee
        {
            OFFSET -0.000000 -34.781296 0.000000
            CHANNELS 3 Zrotation Xrotation Yrotation
            JOINT LeftAnkle
            {
                OFFSET -0.000000 -42.425819 0.000000
                CHANNELS 3 Zrotation Xrotation Yrotation
                End Site
                {
                    OFFSET -0.000000 -4.888888 16.622223
                }
            }
        }
    }
    JOINT RightHip
    {
        OFFSET -11.733333 0.000000 0.000000
        CHANNELS 3 Zrotation Xrotation Yrotation
        JOINT RightKnee
        {
            OFFSET -0.000000 -34.781296 0.000000
            CHANNELS 3 Zrotation Xrotation Yrotation
            JOINT RightAnkle
            {
                OFFSET -0.000000 -42.425819 0.000000
                CHANNELS 3 Zrotation Xrotation Yrotation
                End Site
                {
                    OFFSET -0.000000 -4.888888 16.622223
                }
            }
        }
    }
}
MOTION
Frames:    10
Frame Time:    0.010000
43.961735    84.844040    -37.009724    -0.839047    0.313616    -32.015862    1.545475    16.447552    -2.041183    4.891530    -9.174232    1.101558    -2.614704    0.444172    0.729733    -9.912756    0.152490    -1.363237    -20.163275    55.869583    -56.730762    27.655630    -11.153465    -43.344292    101.026543    7.918072    78.163445    8.553490    0.352149    4.706353    53.451488    43.138729    24.537849    3.457795    1.529250    48.252518    -100.764671    -11.031675    -16.876629    13.495612    -9.870646    3.341474    -1.553866    13.150655    -3.108521    -13.782290    -1.473634    18.707104    -4.706681    -11.882006    -3.780651    2.321778    23.968603    -6.217353    -5.421562    -8.082122    -11.756083    
43.932499    84.839134    -37.043488    -0.858954    0.300413    -32.015121    1.497938    16.520769    -2.055690    4.622500    -9.292598    1.401889    -2.359100    0.537968    1.044877    -9.958586    0.097352    -0.694091    -20.255129    55.542789    -56.698830    27.644957    -11.190714    -43.427704    101.287842    7.767730    78.127930    8.417862    0.374632    5.332418    53.374424    43.115173    24.728706    3.281435    1.411087    47.962833    -99.391388    -12.216099    -15.869061    13.546810    -9.853711    3.391525    -1.580694    13.133490    -3.113292    -13.763687    -1.447189    18.719183    -4.677011    -11.860005    -3.740511    2.358694    23.952383    -6.254810    -5.437677    -8.061012    -11.754624    
43.897785    84.818764    -37.059940    -0.897736    0.260950    -32.020000    1.510709    16.527990    -2.043549    4.628383    -9.128584    1.374065    -2.406143    0.389551    1.013034    -10.027282    0.098235    -0.778495    -20.267298    55.421108    -56.573643    27.579397    -11.184230    -43.555973    100.955406    7.538499    78.090149    8.470926    0.379593    5.349554    53.148613    43.235065    24.882566    3.295502    1.468565    48.110188    -100.274574    -11.875401    -16.754864    13.597498    -9.815277    3.527851    -1.563186    13.166054    -3.272577    -13.821473    -1.459069    18.713997    -4.634542    -11.784001    -3.678878    2.380635    23.902109    -6.289953    -5.481369    -8.041041    -11.771420    
43.879238    84.818771    -37.082874    -0.920877    0.242976    -32.020840    1.522298    16.550781    -2.045183    4.604181    -9.108601    1.353610    -2.354416    0.398448    0.993405    -10.043055    0.078686    -0.934232    -20.507921    55.235146    -56.281052    27.478107    -11.156498    -43.662132    100.975937    7.402314    78.016129    8.478368    0.408388    5.338861    53.014359    43.226986    25.038340    3.329329    1.454944    48.066372    -100.360298    -12.058366    -16.823961    13.639746    -9.819811    3.694147    -1.544709    13.217159    -3.435515    -13.834641    -1.469531    18.713873    -4.603971    -11.749437    -3.646850    2.394349    23.877373    -6.313488    -5.507929    -8.025580    -11.773553    
43.860847    84.820488    -37.111900    -0.944019    0.228665    -32.021938    1.535095    16.572433    -2.046930    4.572481    -9.098899    1.337767    -2.290388    0.421792    0.979645    -10.057305    0.098728    -1.128088    -20.835295    54.947311    -55.902393    27.237675    -11.050058    -43.822460    101.090248    7.303874    77.926331    8.491002    0.381470    5.338083    52.889214    43.263214    25.161575    3.217743    1.409009    48.119995    -100.354164    -12.168620    -16.947620    13.688840    -9.848392    3.930821    -1.511687    13.302738    -3.666942    -13.847496    -1.489176    18.708694    -4.567568    -11.721574    -3.613399    2.405508    23.853270    -6.336193    -5.536559    -8.008735    -11.775789    
43.843445    84.823158    -37.146923    -0.965643    0.219695    -32.023750    1.548490    16.589806    -2.048635    4.541637    -9.095649    1.318606    -2.224333    0.455267    0.968046    -10.069971    0.133274    -1.348770    -21.184298    54.611698    -55.507027    26.993866    -10.975009    -43.996742    101.196419    7.223319    77.805130    8.503209    0.382611    5.335528    52.744301    43.272751    25.316763    3.217534    1.438406    48.104801    -100.590279    -12.275889    -17.142567    13.742544    -9.900766    4.208636    -1.468522    13.416541    -3.935873    -13.860134    -1.514997    18.698387    -4.525642    -11.705035    -3.580571    2.411889    23.832741    -6.354376    -5.566576    -7.991021    -11.779388    
43.827621    84.826073    -37.187160    -0.984832    0.216209    -32.026852    1.560617    16.602140    -2.050264    4.516096    -9.097247    1.305067    -2.159094    0.498257    0.952428    -10.083670    0.133623    -1.565961    -21.518419    54.301701    -55.132011    26.824944    -10.960127    -44.164108    101.240067    7.158272    77.674942    8.516105    0.403683    5.332073    52.570309    43.271725    25.504414    3.256544    1.422628    48.113564    -100.925156    -12.347364    -17.318235    13.798158    -9.969933    4.479251    -1.424963    13.543536    -4.191882    -13.872702    -1.540938    18.684042    -4.478992    -11.701808    -3.550346    2.411572    23.818056    -6.363513    -5.597501    -7.972741    -11.786673    
43.813663    84.828583    -37.231285    -1.001510    0.216972    -32.032143    1.570768    16.610029    -2.051684    4.498490    -9.102092    1.291002    -2.100977    0.547450    0.944225    -10.099820    0.153881    -1.755905    -21.815670    53.976734    -54.805611    26.613811    -10.906875    -44.353928    101.305740    7.141726    77.558228    8.535946    0.377436    5.331989    52.408810    43.309528    25.655642    3.161337    1.394790    48.207531    -101.201172    -12.331605    -17.539623    13.853631    -10.045266    4.695601    -1.392297    13.666562    -4.386358    -13.885388    -1.560790    18.666945    -4.428610    -11.711320    -3.523691    2.403292    23.810480    -6.360414    -5.628645    -7.954279    -11.799080    
43.801613    84.830177    -37.277603    -1.016275    0.219891    -32.040684    1.577624    16.615442    -2.052709    4.493327    -9.109282    1.283424    -2.053472    0.602598    0.933348    -10.119744    0.182511    -1.914475    -22.070301    53.655712    -54.534138    26.442902    -10.896518    -44.554970    101.337242    7.142770    77.419533    8.552117    0.413359    5.330746    52.213951    43.301601    25.863871    3.239650    1.430962    48.208458    -101.779091    -12.316697    -17.783081    13.907606    -10.115802    4.824351    -1.379994    13.771103    -4.485502    -13.898024    -1.569979    18.649500    -4.375546    -11.730862    -3.500668    2.386634    23.809990    -6.343987    -5.659410    -7.935766    -11.816953    
43.791424    84.830505    -37.324421    -1.030100    0.222733    -32.053921    1.579534    16.620407    -2.052376    4.502113    -9.119959    1.272863    -2.021356    0.663583    0.926812    -10.147130    0.183456    -2.038998    -22.292215    53.377605    -54.300648    26.359665    -10.943206    -44.760277    101.295921    7.132147    77.258652    8.576447    0.387530    5.326013    52.035645    43.351398    26.025591    3.124577    1.380592    48.345718    -102.212585    -12.197611    -18.016182    13.959481    -10.172774    4.851605    -1.393247    13.848255    -4.475403    -13.910490    -1.566507    18.633352    -4.320845    -11.757051    -3.480066    2.362251    23.815920    -6.315557    -5.689414    -7.917270    -11.839089    
